TITLE ""
FILE "1Q_t_1369-1378.mp3" MP3
  TRACK 01 AUDIO
    TITLE "1Q_t_1369-1378_01"
    INDEX 01 00:00:00
  TRACK 02 AUDIO
    TITLE "1Q_t_1369-1378_02"
    INDEX 01 00:00:10
  TRACK 03 AUDIO
    TITLE "1Q_t_1369-1378_03"
    INDEX 01 00:01:41
  TRACK 04 AUDIO
    TITLE "1Q_t_1369-1378_04"
    INDEX 01 00:01:47
  TRACK 05 AUDIO
    TITLE "1Q_t_1369-1378_05"
    INDEX 01 00:02:56
  TRACK 06 AUDIO
    TITLE "1Q_t_1369-1378_06"
    INDEX 01 00:02:62
  TRACK 07 AUDIO
    TITLE "1Q_t_1369-1378_07"
    INDEX 01 00:07:03
  TRACK 08 AUDIO
    TITLE "1Q_t_1369-1378_08"
    INDEX 01 00:07:46
  TRACK 09 AUDIO
    TITLE "1Q_t_1369-1378_09"
    INDEX 01 00:08:55
  TRACK 10 AUDIO
    TITLE "1Q_t_1369-1378_10"
    INDEX 01 00:08:63
  TRACK 11 AUDIO
    TITLE "1Q_t_1369-1378_11"
    INDEX 01 00:10:71
  TRACK 12 AUDIO
    TITLE "1Q_t_1369-1378_12"
    INDEX 01 00:11:02
  TRACK 13 AUDIO
    TITLE "1Q_t_1369-1378_13"
    INDEX 01 00:16:54
  TRACK 14 AUDIO
    TITLE "1Q_t_1369-1378_14"
    INDEX 01 00:17:24
  TRACK 15 AUDIO
    TITLE "1Q_t_1369-1378_15"
    INDEX 01 00:18:36
  TRACK 16 AUDIO
    TITLE "1Q_t_1369-1378_16"
    INDEX 01 00:18:43
  TRACK 17 AUDIO
    TITLE "1Q_t_1369-1378_17"
    INDEX 01 00:20:48
  TRACK 18 AUDIO
    TITLE "1Q_t_1369-1378_18"
    INDEX 01 00:20:54
  TRACK 19 AUDIO
    TITLE "1Q_t_1369-1378_19"
    INDEX 01 00:25:30
  TRACK 20 AUDIO
    TITLE "1Q_t_1369-1378_20"
    INDEX 01 00:26:00
  TRACK 21 AUDIO
    TITLE "1Q_t_1369-1378_21"
    INDEX 01 00:27:19
  TRACK 22 AUDIO
    TITLE "1Q_t_1369-1378_22"
    INDEX 01 00:27:25
  TRACK 23 AUDIO
    TITLE "1Q_t_1369-1378_23"
    INDEX 01 00:28:16
  TRACK 24 AUDIO
    TITLE "1Q_t_1369-1378_24"
    INDEX 01 00:28:22
  TRACK 25 AUDIO
    TITLE "1Q_t_1369-1378_25"
    INDEX 01 00:32:32
  TRACK 26 AUDIO
    TITLE "1Q_t_1369-1378_26"
    INDEX 01 00:33:02
  TRACK 27 AUDIO
    TITLE "1Q_t_1369-1378_27"
    INDEX 01 00:34:09
  TRACK 28 AUDIO
    TITLE "1Q_t_1369-1378_28"
    INDEX 01 00:34:19
  TRACK 29 AUDIO
    TITLE "1Q_t_1369-1378_29"
    INDEX 01 00:37:15
  TRACK 30 AUDIO
    TITLE "1Q_t_1369-1378_30"
    INDEX 01 00:37:23
  TRACK 31 AUDIO
    TITLE "1Q_t_1369-1378_31"
    INDEX 01 00:40:74
  TRACK 32 AUDIO
    TITLE "1Q_t_1369-1378_32"
    INDEX 01 00:41:45
  TRACK 33 AUDIO
    TITLE "1Q_t_1369-1378_33"
    INDEX 01 00:42:52
  TRACK 34 AUDIO
    TITLE "1Q_t_1369-1378_34"
    INDEX 01 00:42:60
  TRACK 35 AUDIO
    TITLE "1Q_t_1369-1378_35"
    INDEX 01 00:45:01
  TRACK 36 AUDIO
    TITLE "1Q_t_1369-1378_36"
    INDEX 01 00:45:09
  TRACK 37 AUDIO
    TITLE "1Q_t_1369-1378_37"
    INDEX 01 00:50:00
  TRACK 38 AUDIO
    TITLE "1Q_t_1369-1378_38"
    INDEX 01 00:50:45
  TRACK 39 AUDIO
    TITLE "1Q_t_1369-1378_39"
    INDEX 01 00:51:45
  TRACK 40 AUDIO
    TITLE "1Q_t_1369-1378_40"
    INDEX 01 00:51:53
  TRACK 41 AUDIO
    TITLE "1Q_t_1369-1378_41"
    INDEX 01 00:53:73
  TRACK 42 AUDIO
    TITLE "1Q_t_1369-1378_42"
    INDEX 01 00:54:04
  TRACK 43 AUDIO
    TITLE "1Q_t_1369-1378_43"
    INDEX 01 00:59:39
  TRACK 44 AUDIO
    TITLE "1Q_t_1369-1378_44"
    INDEX 01 01:00:12
  TRACK 45 AUDIO
    TITLE "1Q_t_1369-1378_45"
    INDEX 01 01:01:20
  TRACK 46 AUDIO
    TITLE "1Q_t_1369-1378_46"
    INDEX 01 01:01:30
  TRACK 47 AUDIO
    TITLE "1Q_t_1369-1378_47"
    INDEX 01 01:02:35
  TRACK 48 AUDIO
    TITLE "1Q_t_1369-1378_48"
    INDEX 01 01:02:43
  TRACK 49 AUDIO
    TITLE "1Q_t_1369-1378_49"
    INDEX 01 01:06:31
  TRACK 50 AUDIO
    TITLE "1Q_t_1369-1378_50"
    INDEX 01 01:07:01
  TRACK 51 AUDIO
    TITLE "1Q_t_1369-1378_51"
    INDEX 01 01:08:14
  TRACK 52 AUDIO
    TITLE "1Q_t_1369-1378_52"
    INDEX 01 01:08:26
  TRACK 53 AUDIO
    TITLE "1Q_t_1369-1378_53"
    INDEX 01 01:10:50
  TRACK 54 AUDIO
    TITLE "1Q_t_1369-1378_54"
    INDEX 01 01:10:56
  TRACK 55 AUDIO
    TITLE "1Q_t_1369-1378_55"
    INDEX 01 01:16:43
  TRACK 56 AUDIO
    TITLE "1Q_t_1369-1378_56"
    INDEX 01 01:17:13
  TRACK 57 AUDIO
    TITLE "1Q_t_1369-1378_57"
    INDEX 01 01:18:16
  TRACK 58 AUDIO
    TITLE "1Q_t_1369-1378_58"
    INDEX 01 01:18:24
  TRACK 59 AUDIO
    TITLE "1Q_t_1369-1378_59"
    INDEX 01 01:20:31
  TRACK 60 AUDIO
    TITLE "1Q_t_1369-1378_60"
    INDEX 01 01:20:39
  TRACK 61 AUDIO
    TITLE "1Q_t_1369-1378_61"
    INDEX 01 01:24:40
